<svg width="342" height="105" viewBox="0 0 342 105" fill="none" xmlns="http://www.w3.org/2000/svg">
<g clip-path="url(#clip0_3_38)">
<rect width="342" height="105" fill="#333333"/>
<path d="M74.624 38.288C78.0373 38.288 80.9386 38.8426 83.328 39.952C85.7173 41.0613 87.4666 42.0853 88.576 43.024C91.392 45.328 93.0986 43.792 93.696 38.416H96.64C96.4693 40.8053 96.3413 43.664 96.256 46.992C96.1706 50.2346 96.128 54.6293 96.128 60.176H93.184C92.672 57.0186 91.776 53.9466 90.496 50.96C89.3013 47.9733 87.5093 45.5413 85.12 43.664C82.7306 41.7013 79.616 40.72 75.776 40.72C72.7893 40.72 70.272 41.5733 68.224 43.28C66.2613 44.9013 65.28 47.3333 65.28 50.576C65.28 53.136 66.048 55.3546 67.584 57.232C69.12 59.024 71.1253 60.7306 73.6 62.352C76.0746 63.888 78.7626 65.5946 81.664 67.472C84.9066 69.52 87.8506 71.6106 90.496 73.744C93.1413 75.8773 95.232 78.224 96.768 80.784C98.3893 83.344 99.2 86.3733 99.2 89.872C99.2 93.7973 98.176 97.0826 96.128 99.728C94.08 102.373 91.392 104.379 88.064 105.744C84.8213 107.109 81.2373 107.792 77.312 107.792C75.4346 107.792 73.6426 107.621 71.936 107.28C70.3146 107.024 68.736 106.597 67.2 106C66.3466 105.573 65.4506 105.061 64.512 104.464C63.6586 103.867 62.8053 103.227 61.952 102.544C61.0986 101.861 60.3306 101.904 59.648 102.672C58.9653 103.355 58.4533 104.763 58.112 106.896H55.168C55.3386 104.165 55.4666 100.837 55.552 96.912C55.6373 92.9866 55.68 87.7813 55.68 81.296H58.624C59.2213 86.0746 60.0746 90.256 61.184 93.84C62.2933 97.424 64.0426 100.24 66.432 102.288C68.8213 104.251 72.1493 105.232 76.416 105.232C78.1226 105.232 79.8293 104.848 81.536 104.08C83.328 103.312 84.8213 102.032 86.016 100.24C87.2106 98.448 87.808 96.0586 87.808 93.072C87.808 89.3173 86.4426 86.2453 83.712 83.856C80.9813 81.4666 77.5253 78.9493 73.344 76.304C70.272 74.3413 67.3706 72.3786 64.64 70.416C61.9946 68.4533 59.8186 66.2346 58.112 63.76C56.4906 61.2853 55.68 58.2986 55.68 54.8C55.68 50.96 56.5333 47.8453 58.24 45.456C60.032 42.9813 62.3786 41.1893 65.28 40.08C68.1813 38.8853 71.296 38.288 74.624 38.288Z" fill="white"/>
<path d="M28.304 13.08C30.5226 13.08 32.4426 13.8907 34.064 15.512C35.6853 17.1333 36.496 19.0533 36.496 21.272C36.496 23.4907 35.6853 25.4107 34.064 27.032C32.4426 28.6534 30.5226 29.464 28.304 29.464C26.0853 29.464 24.1653 28.6534 22.544 27.032C20.9226 25.4107 20.112 23.4907 20.112 21.272C20.112 19.0533 20.9226 17.1333 22.544 15.512C24.1653 13.8907 26.0853 13.08 28.304 13.08ZM34.96 38.672V94.096C34.96 97.68 35.6853 100.112 37.136 101.392C38.672 102.672 41.1893 103.312 44.688 103.312V106C43.2373 105.915 41.0186 105.829 38.032 105.744C35.1306 105.573 32.1866 105.488 29.2 105.488C26.2986 105.488 23.3546 105.573 20.368 105.744C17.3813 105.829 15.1626 105.915 13.712 106V103.312C17.2106 103.312 19.6853 102.672 21.136 101.392C22.672 100.112 23.44 97.68 23.44 94.096V54.032C23.44 50.192 22.7573 47.376 21.392 45.584C20.0266 43.7067 17.4666 42.768 13.712 42.768V40.08C16.4426 40.336 19.088 40.464 21.648 40.464C24.1226 40.464 26.4693 40.336 28.688 40.08C30.992 39.7387 33.0826 39.2694 34.96 38.672Z" fill="white"/>
<path d="M115 105H114V0L115 0V105Z" fill="#E0E0E0"/>
<path d="M276.062 76.84C277.129 76.84 278.036 77.0133 278.782 77.36C279.529 77.7066 280.075 78.0266 280.422 78.32C281.302 79.04 281.836 78.56 282.022 76.88H282.942C282.889 77.6266 282.849 78.52 282.822 79.56C282.796 80.5733 282.782 81.9466 282.782 83.68H281.862C281.702 82.6933 281.422 81.7333 281.022 80.8C280.649 79.8666 280.089 79.1066 279.342 78.52C278.596 77.9066 277.622 77.6 276.422 77.6C275.489 77.6 274.702 77.8666 274.062 78.4C273.449 78.9066 273.142 79.6666 273.142 80.68C273.142 81.48 273.382 82.1733 273.862 82.76C274.342 83.32 274.969 83.8533 275.742 84.36C276.516 84.84 277.356 85.3733 278.262 85.96C279.276 86.6 280.196 87.2533 281.022 87.92C281.849 88.5866 282.502 89.32 282.982 90.12C283.489 90.92 283.742 91.8666 283.742 92.96C283.742 94.1866 283.422 95.2133 282.782 96.04C282.142 96.8666 281.302 97.4933 280.262 97.92C279.249 98.3466 278.129 98.56 276.902 98.56C276.316 98.56 275.756 98.5066 275.222 98.4C274.716 98.32 274.222 98.1866 273.742 98C273.476 97.8666 273.196 97.7066 272.902 97.52C272.636 97.3333 272.369 97.1333 272.102 96.92C271.836 96.7066 271.596 96.72 271.382 96.96C271.169 97.1733 271.009 97.6133 270.902 98.28H269.982C270.036 97.4266 270.076 96.3866 270.102 95.16C270.129 93.9333 270.142 92.3066 270.142 90.28H271.062C271.249 91.7733 271.516 93.08 271.862 94.2C272.209 95.32 272.755 96.2 273.502 96.84C274.249 97.4533 275.289 97.76 276.622 97.76C277.156 97.76 277.689 97.64 278.222 97.4C278.782 97.16 279.249 96.76 279.622 96.2C279.996 95.64 280.182 94.8933 280.182 93.96C280.182 92.7866 279.756 91.8266 278.902 91.08C278.049 90.3333 276.969 89.5466 275.662 88.72C274.702 88.1066 273.796 87.4933 272.942 86.88C272.116 86.2666 271.436 85.5733 270.902 84.8C270.396 84.0266 270.142 83.0933 270.142 82C270.142 80.8 270.409 79.8266 270.942 79.08C271.502 78.3066 272.235 77.7466 273.142 77.4C274.049 77.0266 275.022 76.84 276.062 76.84Z" fill="white"/>
<path d="M258.475 76.84C259.488 76.84 260.328 76.9733 260.995 77.24C261.688 77.5066 262.262 77.88 262.715 78.36C263.222 78.8933 263.582 79.56 263.795 80.36C264.008 81.16 264.115 82.24 264.115 83.6V94.28C264.115 95.4 264.342 96.16 264.795 96.56C265.275 96.96 266.062 97.16 267.155 97.16V98C266.702 97.9733 266.008 97.9466 265.075 97.92C264.142 97.8666 263.235 97.84 262.355 97.84C261.475 97.84 260.608 97.8666 259.755 97.92C258.928 97.9466 258.302 97.9733 257.875 98V97.16C258.835 97.16 259.515 96.96 259.915 96.56C260.315 96.16 260.515 95.4 260.515 94.28V82.72C260.515 81.8933 260.448 81.1333 260.315 80.44C260.182 79.7466 259.875 79.1866 259.395 78.76C258.942 78.3333 258.235 78.12 257.275 78.12C256.155 78.12 255.168 78.44 254.315 79.08C253.488 79.72 252.835 80.6 252.355 81.72C251.902 82.8133 251.675 84.04 251.675 85.4V94.28C251.675 95.4 251.875 96.16 252.275 96.56C252.675 96.96 253.355 97.16 254.315 97.16V98C253.888 97.9733 253.248 97.9466 252.395 97.92C251.568 97.8666 250.715 97.84 249.835 97.84C248.955 97.84 248.048 97.8666 247.115 97.92C246.182 97.9466 245.488 97.9733 245.035 98V97.16C246.128 97.16 246.902 96.96 247.355 96.56C247.835 96.16 248.075 95.4 248.075 94.28V81.76C248.075 80.56 247.862 79.68 247.435 79.12C247.008 78.5333 246.208 78.24 245.035 78.24V77.4C245.888 77.48 246.715 77.52 247.515 77.52C248.288 77.52 249.022 77.48 249.715 77.4C250.435 77.2933 251.088 77.1466 251.675 76.96V81.68C252.368 79.8666 253.328 78.6133 254.555 77.92C255.808 77.2 257.115 76.84 258.475 76.84Z" fill="white"/>
<path d="M232.921 76.84C234.628 76.84 236.161 77.2133 237.521 77.96C238.881 78.7066 239.961 79.88 240.761 81.48C241.588 83.08 242.001 85.16 242.001 87.72C242.001 90.28 241.588 92.36 240.761 93.96C239.961 95.5333 238.881 96.6933 237.521 97.44C236.161 98.1866 234.628 98.56 232.921 98.56C231.241 98.56 229.708 98.1866 228.321 97.44C226.961 96.6933 225.868 95.5333 225.041 93.96C224.241 92.36 223.841 90.28 223.841 87.72C223.841 85.16 224.241 83.08 225.041 81.48C225.868 79.88 226.961 78.7066 228.321 77.96C229.708 77.2133 231.241 76.84 232.921 76.84ZM232.921 77.64C231.401 77.64 230.148 78.4266 229.161 80C228.201 81.5733 227.721 84.1466 227.721 87.72C227.721 91.2933 228.201 93.8666 229.161 95.44C230.148 96.9866 231.401 97.76 232.921 97.76C234.441 97.76 235.681 96.9866 236.641 95.44C237.628 93.8666 238.121 91.2933 238.121 87.72C238.121 84.1466 237.628 81.5733 236.641 80C235.681 78.4266 234.441 77.64 232.921 77.64Z" fill="white"/>
<path d="M215.962 67.4C216.656 67.4 217.256 67.6534 217.762 68.16C218.269 68.6667 218.522 69.2667 218.522 69.96C218.522 70.6534 218.269 71.2534 217.762 71.76C217.256 72.2667 216.656 72.52 215.962 72.52C215.269 72.52 214.669 72.2667 214.162 71.76C213.656 71.2534 213.402 70.6534 213.402 69.96C213.402 69.2667 213.656 68.6667 214.162 68.16C214.669 67.6534 215.269 67.4 215.962 67.4ZM218.042 76.96V94.28C218.042 95.4 218.269 96.16 218.722 96.56C219.202 96.96 219.989 97.16 221.082 97.16V98C220.629 97.9734 219.936 97.9467 219.002 97.92C218.096 97.8667 217.176 97.84 216.242 97.84C215.336 97.84 214.416 97.8667 213.482 97.92C212.549 97.9467 211.856 97.9734 211.402 98V97.16C212.496 97.16 213.269 96.96 213.722 96.56C214.202 96.16 214.442 95.4 214.442 94.28V81.76C214.442 80.56 214.229 79.68 213.802 79.12C213.376 78.5334 212.576 78.24 211.402 78.24V77.4C212.256 77.48 213.082 77.52 213.882 77.52C214.656 77.52 215.389 77.48 216.082 77.4C216.802 77.2934 217.456 77.1467 218.042 76.96Z" fill="white"/>
<path d="M203.702 70.76V77.44H209.622V78.24H203.702V93.72C203.702 94.9734 203.928 95.8533 204.382 96.36C204.835 96.8667 205.462 97.12 206.262 97.12C207.062 97.12 207.755 96.8 208.342 96.16C208.928 95.4934 209.435 94.3867 209.862 92.84L210.662 93.04C210.395 94.5867 209.862 95.8933 209.062 96.96C208.288 98.0267 207.088 98.56 205.462 98.56C204.555 98.56 203.808 98.44 203.222 98.2C202.635 97.9867 202.115 97.6667 201.662 97.24C201.075 96.6267 200.662 95.8933 200.422 95.04C200.208 94.1867 200.102 93.0533 200.102 91.64V78.24H196.262V77.44H200.102V71.32C200.768 71.2933 201.408 71.24 202.022 71.16C202.635 71.08 203.195 70.9467 203.702 70.76Z" fill="white"/>
<path d="M192.179 76.96V93.68C192.179 94.88 192.393 95.7734 192.819 96.36C193.273 96.92 194.073 97.2 195.219 97.2V98.04C194.393 97.96 193.566 97.92 192.739 97.92C191.966 97.92 191.219 97.96 190.499 98.04C189.806 98.12 189.166 98.2667 188.579 98.48V93.76C187.913 95.4934 186.966 96.7334 185.739 97.48C184.539 98.2 183.299 98.56 182.019 98.56C181.086 98.56 180.273 98.4267 179.579 98.16C178.886 97.8934 178.313 97.52 177.859 97.04C177.353 96.5067 177.006 95.8134 176.819 94.96C176.633 94.1067 176.539 93.0534 176.539 91.8V81.76C176.539 80.56 176.326 79.68 175.899 79.12C175.473 78.5334 174.673 78.24 173.499 78.24V77.4C174.353 77.48 175.179 77.52 175.979 77.52C176.753 77.52 177.486 77.48 178.179 77.4C178.899 77.2934 179.553 77.1467 180.139 76.96V92.68C180.139 93.5067 180.193 94.2667 180.299 94.96C180.406 95.6534 180.673 96.2134 181.099 96.64C181.526 97.0667 182.219 97.28 183.179 97.28C184.219 97.28 185.139 96.96 185.939 96.32C186.766 95.68 187.406 94.8134 187.859 93.72C188.339 92.6267 188.579 91.4 188.579 90.04V81.76C188.579 80.56 188.366 79.68 187.939 79.12C187.513 78.5334 186.713 78.24 185.539 78.24V77.4C186.393 77.48 187.219 77.52 188.019 77.52C188.793 77.52 189.526 77.48 190.219 77.4C190.939 77.2934 191.593 77.1467 192.179 76.96Z" fill="white"/>
<path d="M168.934 66.64V94.28C168.934 95.4 169.161 96.16 169.614 96.56C170.094 96.96 170.881 97.16 171.974 97.16V98C171.521 97.9733 170.827 97.9467 169.894 97.92C168.987 97.8667 168.067 97.84 167.134 97.84C166.227 97.84 165.307 97.8667 164.374 97.92C163.441 97.9467 162.747 97.9733 162.294 98V97.16C163.387 97.16 164.161 96.96 164.614 96.56C165.094 96.16 165.334 95.4 165.334 94.28V71.44C165.334 70.24 165.121 69.36 164.694 68.8C164.267 68.2134 163.467 67.92 162.294 67.92V67.08C163.147 67.16 163.974 67.2 164.774 67.2C165.547 67.2 166.281 67.16 166.974 67.08C167.694 66.9733 168.347 66.8267 168.934 66.64Z" fill="white"/>
<path d="M150.851 76.84C152.557 76.84 154.091 77.2133 155.451 77.96C156.811 78.7066 157.891 79.88 158.691 81.48C159.517 83.08 159.931 85.16 159.931 87.72C159.931 90.28 159.517 92.36 158.691 93.96C157.891 95.5333 156.811 96.6933 155.451 97.44C154.091 98.1866 152.557 98.56 150.851 98.56C149.171 98.56 147.637 98.1866 146.251 97.44C144.891 96.6933 143.797 95.5333 142.971 93.96C142.171 92.36 141.771 90.28 141.771 87.72C141.771 85.16 142.171 83.08 142.971 81.48C143.797 79.88 144.891 78.7066 146.251 77.96C147.637 77.2133 149.171 76.84 150.851 76.84ZM150.851 77.64C149.331 77.64 148.077 78.4266 147.091 80C146.131 81.5733 145.651 84.1466 145.651 87.72C145.651 91.2933 146.131 93.8666 147.091 95.44C148.077 96.9866 149.331 97.76 150.851 97.76C152.371 97.76 153.611 96.9866 154.571 95.44C155.557 93.8666 156.051 91.2933 156.051 87.72C156.051 84.1466 155.557 81.5733 154.571 80C153.611 78.4266 152.371 77.64 150.851 77.64Z" fill="white"/>
<path d="M130.32 76.84C131.387 76.84 132.293 77.0133 133.04 77.36C133.787 77.7066 134.333 78.0266 134.68 78.32C135.56 79.04 136.093 78.56 136.28 76.88H137.2C137.147 77.6266 137.107 78.52 137.08 79.56C137.053 80.5733 137.04 81.9466 137.04 83.68H136.12C135.96 82.6933 135.68 81.7333 135.28 80.8C134.907 79.8666 134.347 79.1066 133.6 78.52C132.853 77.9066 131.88 77.6 130.68 77.6C129.747 77.6 128.96 77.8666 128.32 78.4C127.707 78.9066 127.4 79.6666 127.4 80.68C127.4 81.48 127.64 82.1733 128.12 82.76C128.6 83.32 129.227 83.8533 130 84.36C130.773 84.84 131.613 85.3733 132.52 85.96C133.533 86.6 134.453 87.2533 135.28 87.92C136.107 88.5866 136.76 89.32 137.24 90.12C137.747 90.92 138 91.8666 138 92.96C138 94.1866 137.68 95.2133 137.04 96.04C136.4 96.8666 135.56 97.4933 134.52 97.92C133.507 98.3466 132.387 98.56 131.16 98.56C130.573 98.56 130.013 98.5066 129.48 98.4C128.973 98.32 128.48 98.1866 128 98C127.733 97.8666 127.453 97.7066 127.16 97.52C126.893 97.3333 126.627 97.1333 126.36 96.92C126.093 96.7066 125.853 96.72 125.64 96.96C125.427 97.1733 125.267 97.6133 125.16 98.28H124.24C124.293 97.4266 124.333 96.3866 124.36 95.16C124.387 93.9333 124.4 92.3066 124.4 90.28H125.32C125.507 91.7733 125.773 93.08 126.12 94.2C126.467 95.32 127.013 96.2 127.76 96.84C128.507 97.4533 129.547 97.76 130.88 97.76C131.413 97.76 131.947 97.64 132.48 97.4C133.04 97.16 133.507 96.76 133.88 96.2C134.253 95.64 134.44 94.8933 134.44 93.96C134.44 92.7866 134.013 91.8266 133.16 91.08C132.307 90.3333 131.227 89.5466 129.92 88.72C128.96 88.1066 128.053 87.4933 127.2 86.88C126.373 86.2666 125.693 85.5733 125.16 84.8C124.653 84.0266 124.4 83.0933 124.4 82C124.4 80.8 124.667 79.8266 125.2 79.08C125.76 78.3066 126.493 77.7466 127.4 77.4C128.307 77.0266 129.28 76.84 130.32 76.84Z" fill="white"/>
<path d="M257.006 23.84C257.726 23.84 258.353 23.9867 258.886 24.28C259.446 24.5734 259.873 24.96 260.166 25.44C260.486 25.8934 260.646 26.4134 260.646 27C260.646 27.6667 260.433 28.2534 260.006 28.76C259.606 29.2667 259.06 29.52 258.366 29.52C257.806 29.52 257.313 29.3467 256.886 29C256.46 28.6267 256.246 28.1067 256.246 27.44C256.246 26.9334 256.38 26.5067 256.646 26.16C256.94 25.7867 257.26 25.4934 257.606 25.28C257.42 25.0134 257.14 24.88 256.766 24.88C255.94 24.88 255.18 25.1334 254.486 25.64C253.793 26.12 253.206 26.7467 252.726 27.52C252.246 28.2934 251.873 29.12 251.606 30C251.34 30.8534 251.206 31.6534 251.206 32.4V40.88C251.206 42.1867 251.58 43.0667 252.326 43.52C253.1 43.9467 254.14 44.16 255.446 44.16V45C254.833 44.9734 253.966 44.9467 252.846 44.92C251.726 44.8667 250.54 44.84 249.286 44.84C248.38 44.84 247.473 44.8667 246.566 44.92C245.686 44.9467 245.02 44.9734 244.566 45V44.16C245.66 44.16 246.433 43.96 246.886 43.56C247.366 43.16 247.606 42.4 247.606 41.28V28.76C247.606 27.56 247.393 26.68 246.966 26.12C246.54 25.5334 245.74 25.24 244.566 25.24V24.4C245.42 24.48 246.246 24.52 247.046 24.52C247.82 24.52 248.553 24.48 249.246 24.4C249.966 24.2934 250.62 24.1467 251.206 23.96V28.96C251.5 28.1867 251.913 27.4134 252.446 26.64C253.006 25.84 253.673 25.1734 254.446 24.64C255.22 24.1067 256.073 23.84 257.006 23.84Z" fill="white"/>
<path d="M232.452 23.84C234.159 23.84 235.692 24.2134 237.052 24.96C238.412 25.7067 239.492 26.88 240.292 28.48C241.119 30.08 241.532 32.16 241.532 34.72C241.532 37.28 241.119 39.36 240.292 40.96C239.492 42.5334 238.412 43.6934 237.052 44.44C235.692 45.1867 234.159 45.56 232.452 45.56C230.772 45.56 229.239 45.1867 227.852 44.44C226.492 43.6934 225.399 42.5334 224.572 40.96C223.772 39.36 223.372 37.28 223.372 34.72C223.372 32.16 223.772 30.08 224.572 28.48C225.399 26.88 226.492 25.7067 227.852 24.96C229.239 24.2134 230.772 23.84 232.452 23.84ZM232.452 24.64C230.932 24.64 229.679 25.4267 228.692 27C227.732 28.5734 227.252 31.1467 227.252 34.72C227.252 38.2934 227.732 40.8667 228.692 42.44C229.679 43.9867 230.932 44.76 232.452 44.76C233.972 44.76 235.212 43.9867 236.172 42.44C237.159 40.8667 237.652 38.2934 237.652 34.72C237.652 31.1467 237.159 28.5734 236.172 27C235.212 25.4267 233.972 24.64 232.452 24.64Z" fill="white"/>
<path d="M215.493 14.4C216.187 14.4 216.787 14.6534 217.293 15.16C217.8 15.6667 218.053 16.2667 218.053 16.96C218.053 17.6534 217.8 18.2534 217.293 18.76C216.787 19.2667 216.187 19.52 215.493 19.52C214.8 19.52 214.2 19.2667 213.693 18.76C213.187 18.2534 212.933 17.6534 212.933 16.96C212.933 16.2667 213.187 15.6667 213.693 15.16C214.2 14.6534 214.8 14.4 215.493 14.4ZM217.573 23.96V41.28C217.573 42.4 217.8 43.16 218.253 43.56C218.733 43.96 219.52 44.16 220.613 44.16V45C220.16 44.9734 219.467 44.9467 218.533 44.92C217.627 44.8667 216.707 44.84 215.773 44.84C214.867 44.84 213.947 44.8667 213.013 44.92C212.08 44.9467 211.387 44.9734 210.933 45V44.16C212.027 44.16 212.8 43.96 213.253 43.56C213.733 43.16 213.973 42.4 213.973 41.28V28.76C213.973 27.56 213.76 26.68 213.333 26.12C212.907 25.5334 212.107 25.24 210.933 25.24V24.4C211.787 24.48 212.613 24.52 213.413 24.52C214.187 24.52 214.92 24.48 215.613 24.4C216.333 24.2934 216.987 24.1467 217.573 23.96Z" fill="white"/>
<path d="M205.561 23.84C206.281 23.84 206.908 23.9867 207.441 24.28C208.001 24.5734 208.428 24.96 208.721 25.44C209.041 25.8934 209.201 26.4134 209.201 27C209.201 27.6667 208.988 28.2534 208.561 28.76C208.161 29.2667 207.614 29.52 206.921 29.52C206.361 29.52 205.868 29.3467 205.441 29C205.014 28.6267 204.801 28.1067 204.801 27.44C204.801 26.9334 204.934 26.5067 205.201 26.16C205.494 25.7867 205.814 25.4934 206.161 25.28C205.974 25.0134 205.694 24.88 205.321 24.88C204.494 24.88 203.734 25.1334 203.041 25.64C202.348 26.12 201.761 26.7467 201.281 27.52C200.801 28.2934 200.428 29.12 200.161 30C199.894 30.8534 199.761 31.6534 199.761 32.4V40.88C199.761 42.1867 200.134 43.0667 200.881 43.52C201.654 43.9467 202.694 44.16 204.001 44.16V45C203.388 44.9734 202.521 44.9467 201.401 44.92C200.281 44.8667 199.094 44.84 197.841 44.84C196.934 44.84 196.028 44.8667 195.121 44.92C194.241 44.9467 193.574 44.9734 193.121 45V44.16C194.214 44.16 194.988 43.96 195.441 43.56C195.921 43.16 196.161 42.4 196.161 41.28V28.76C196.161 27.56 195.948 26.68 195.521 26.12C195.094 25.5334 194.294 25.24 193.121 25.24V24.4C193.974 24.48 194.801 24.52 195.601 24.52C196.374 24.52 197.108 24.48 197.801 24.4C198.521 24.2934 199.174 24.1467 199.761 23.96V28.96C200.054 28.1867 200.468 27.4134 201.001 26.64C201.561 25.84 202.228 25.1734 203.001 24.64C203.774 24.1067 204.628 23.84 205.561 23.84Z" fill="white"/>
<path d="M182.607 23.84C184.953 23.84 186.78 24.56 188.087 26C189.42 27.4134 190.087 29.6267 190.087 32.64H175.967L175.927 31.88H186.247C186.3 30.5734 186.193 29.3734 185.927 28.28C185.66 27.16 185.233 26.2667 184.647 25.6C184.087 24.9334 183.353 24.6 182.447 24.6C181.22 24.6 180.127 25.2134 179.167 26.44C178.233 27.6667 177.673 29.6134 177.487 32.28L177.607 32.44C177.553 32.84 177.513 33.28 177.487 33.76C177.46 34.24 177.447 34.72 177.447 35.2C177.447 37.0134 177.74 38.5734 178.327 39.88C178.913 41.1867 179.673 42.1867 180.607 42.88C181.567 43.5467 182.553 43.88 183.567 43.88C184.367 43.88 185.127 43.76 185.847 43.52C186.567 43.2534 187.233 42.8267 187.847 42.24C188.46 41.6534 188.993 40.8667 189.447 39.88L190.247 40.2C189.953 41.08 189.473 41.9334 188.807 42.76C188.14 43.5867 187.3 44.2667 186.287 44.8C185.273 45.3067 184.1 45.56 182.767 45.56C180.847 45.56 179.193 45.12 177.807 44.24C176.447 43.36 175.393 42.1467 174.647 40.6C173.927 39.0267 173.567 37.2267 173.567 35.2C173.567 32.8534 173.94 30.84 174.687 29.16C175.433 27.4534 176.487 26.1467 177.847 25.24C179.207 24.3067 180.793 23.84 182.607 23.84Z" fill="white"/>
<path d="M165.186 17.76V24.44H171.106V25.24H165.186V40.72C165.186 41.9733 165.413 42.8533 165.866 43.36C166.319 43.8667 166.946 44.12 167.746 44.12C168.546 44.12 169.239 43.8 169.826 43.16C170.413 42.4933 170.919 41.3867 171.346 39.84L172.146 40.04C171.879 41.5867 171.346 42.8933 170.546 43.96C169.773 45.0267 168.573 45.56 166.946 45.56C166.039 45.56 165.293 45.44 164.706 45.2C164.119 44.9867 163.599 44.6667 163.146 44.24C162.559 43.6267 162.146 42.8933 161.906 42.04C161.693 41.1867 161.586 40.0533 161.586 38.64V25.24H157.746V24.44H161.586V18.32C162.253 18.2933 162.893 18.24 163.506 18.16C164.119 18.08 164.679 17.9467 165.186 17.76Z" fill="white"/>
<path d="M148.319 23.84C149.332 23.84 150.172 23.9734 150.839 24.24C151.532 24.5067 152.105 24.88 152.559 25.36C153.065 25.8934 153.425 26.56 153.639 27.36C153.852 28.16 153.959 29.24 153.959 30.6V41.28C153.959 42.4 154.185 43.16 154.639 43.56C155.119 43.96 155.905 44.16 156.999 44.16V45C156.545 44.9734 155.852 44.9467 154.919 44.92C153.985 44.8667 153.079 44.84 152.199 44.84C151.319 44.84 150.452 44.8667 149.599 44.92C148.772 44.9467 148.145 44.9734 147.719 45V44.16C148.679 44.16 149.359 43.96 149.759 43.56C150.159 43.16 150.359 42.4 150.359 41.28V29.72C150.359 28.8934 150.292 28.1334 150.159 27.44C150.025 26.7467 149.719 26.1867 149.239 25.76C148.785 25.3334 148.079 25.12 147.119 25.12C145.999 25.12 145.012 25.44 144.159 26.08C143.332 26.72 142.679 27.6 142.199 28.72C141.745 29.8134 141.519 31.04 141.519 32.4V41.28C141.519 42.4 141.719 43.16 142.119 43.56C142.519 43.96 143.199 44.16 144.159 44.16V45C143.732 44.9734 143.092 44.9467 142.239 44.92C141.412 44.8667 140.559 44.84 139.679 44.84C138.799 44.84 137.892 44.8667 136.959 44.92C136.025 44.9467 135.332 44.9734 134.879 45V44.16C135.972 44.16 136.745 43.96 137.199 43.56C137.679 43.16 137.919 42.4 137.919 41.28V28.76C137.919 27.56 137.705 26.68 137.279 26.12C136.852 25.5334 136.052 25.24 134.879 25.24V24.4C135.732 24.48 136.559 24.52 137.359 24.52C138.132 24.52 138.865 24.48 139.559 24.4C140.279 24.2934 140.932 24.1467 141.519 23.96V28.68C142.212 26.8667 143.172 25.6134 144.399 24.92C145.652 24.2 146.959 23.84 148.319 23.84Z" fill="white"/>
<path d="M127.72 14.4C128.413 14.4 129.013 14.6534 129.52 15.16C130.027 15.6667 130.28 16.2667 130.28 16.96C130.28 17.6534 130.027 18.2534 129.52 18.76C129.013 19.2667 128.413 19.52 127.72 19.52C127.027 19.52 126.427 19.2667 125.92 18.76C125.413 18.2534 125.16 17.6534 125.16 16.96C125.16 16.2667 125.413 15.6667 125.92 15.16C126.427 14.6534 127.027 14.4 127.72 14.4ZM129.8 23.96V41.28C129.8 42.4 130.027 43.16 130.48 43.56C130.96 43.96 131.747 44.16 132.84 44.16V45C132.387 44.9734 131.693 44.9467 130.76 44.92C129.853 44.8667 128.933 44.84 128 44.84C127.093 44.84 126.173 44.8667 125.24 44.92C124.307 44.9467 123.613 44.9734 123.16 45V44.16C124.253 44.16 125.027 43.96 125.48 43.56C125.96 43.16 126.2 42.4 126.2 41.28V28.76C126.2 27.56 125.987 26.68 125.56 26.12C125.133 25.5334 124.333 25.24 123.16 25.24V24.4C124.013 24.48 124.84 24.52 125.64 24.52C126.413 24.52 127.147 24.48 127.84 24.4C128.56 24.2934 129.213 24.1467 129.8 23.96Z" fill="white"/>
</g>
<defs>
<clipPath id="clip0_3_38">
<rect width="342" height="105" fill="white"/>
</clipPath>
</defs>
</svg>
